PathFileType	4	(X/Y/Z)	C:/Users/beibeiliu/ov580/test_trc/User1\sequence.14_training_dense_left.trc
DataRate	CameraRate	NumFrames	NumMarkers	Units	OrigDataRate	OrigDataStartFrame	OrigNumFrames
120	120	12	19	mm	120	234	267
Frame#	Time	ThumbCMC			ThumbMCP			ThumbIP			ThumbTip			IndexMCP			IndexPIP			IndexTip			MiddleMCP			MiddlePIP			MiddleTip			RingMCP			RingPIP			RingTip			PinkyMCP			PinkyPIP			PinkyTip			BackHand1			BackHand2			BackHand3	
		X0	Y0	Z0	X1	Y1	Z1	X2	Y2	Z2	X3	Y3	Z3	X4	Y4	Z4	X5	Y5	Z5	X6	Y6	Z6	X7	Y7	Z7	X8	Y8	Z8	X9	Y9	Z9	X10	Y10	Z10	X11	Y11	Z11	X12	Y12	Z12	X13	Y13	Z13	X14	Y14	Z14	X15	Y15	Z15	X16	Y16	Z16	X17	Y17	Z17	X18	Y18	Z18	
233	1.94167	-182.05	87.2945	11.3983	-169.43	81.2456	-22.065	-161.828	82.0843	-49.2179	-161.883	79.3948	-79.5901	-216.835	113.395	-61.6932	-211.557	102.422	-92.6464	-197.894	76.4588	-105.925	-238.011	99.0127	-66.5452	-227.931	86.8882	-95.8973	-204.224	57.3313	-108.878	-253.287	82.3486	-60.2723	-247.013	68.7983	-91.4594	-221.033	50.6208	-105.83	-264.343	59.9272	-46.1263	-261.268	54.4044	-74.4373	-247.725	47.4743	-94.61	-254.703	77.9779	0.889955	-245.702	70.4775	32.6987	-225.236	99.5499	13.1568	
234	1.95	-184.016	90.8069	7.57562	-169.098	81.605	-22.1044	-164.956	83.8781	-51.7656	-164.98	77.5491	-75.3357	-219.684	111.784	-65.2422	-211.788	98.5268	-93.7966	-194.332	76.8898	-105.538	-239.027	96.8053	-71.3226	-223.668	82.4256	-98.982	-201.579	57.8229	-106.25	-254.045	77.298	-67.4766	-242.492	66.8578	-92.0778	-218.375	46.0161	-102.685	-261.397	56.4539	-47.4292	-259.693	49.2641	-74.4593	-239.522	44.867	-96.326	-253.372	77.5297	-1.49177	-245.233	71.2654	31.2662	-226.865	98.5915	14.4385	
235	1.95833	-184.797	89.9804	11.2719	-169.931	84.2642	-24.1644	-164.632	83.315	-51.452	-167.821	77.7644	-77.822	-223.417	107.717	-65.4182	-213.744	98.1481	-91.3161	-189.666	74.1398	-103.748	-241.003	91.3424	-73.2022	-220.677	80.7377	-99.1035	-197.344	55.4478	-102.686	-253.276	71.6002	-67.7452	-237.009	61.4418	-93.6048	-214.461	43.7192	-99.4283	-261.583	49.8849	-50.035	-251.807	45.5359	-76.5039	-230.717	42.096	-91.7013	-253.433	71.6521	-1.70282	-247.306	63.9529	31.8991	-227.847	100.607	12.2049	
236	1.96667	-184.15	92.8767	9.19279	-169.292	85.2204	-24.9483	-167.134	84.5345	-54.3325	-167.56	78.1396	-79.4207	-220.861	108.106	-68.6513	-211.558	93.9608	-92.1572	-186.717	69.6581	-100.781	-239.409	90.4705	-69.0973	-218.891	74.7322	-98.251	-192.391	54.8712	-97.2313	-250.446	69.6921	-65.3835	-231.355	53.8354	-93.7358	-204.961	38.9941	-92.8829	-258.874	46.2476	-49.7935	-244.218	43.6061	-77.9225	-216.018	40.9795	-86.1433	-251.856	72.2347	-1.16025	-248.906	64.274	29.8224	-230.458	96.6689	11.9428	
237	1.975	-191.429	92.1694	5.77283	-173.655	86.7024	-28.6552	-172.846	82.2982	-53.4677	-168.985	76.659	-80.2055	-221.002	105.729	-70.1988	-208.508	94.779	-91.6163	-186.237	70.2277	-97.1283	-236.529	89.1602	-73.4383	-214.392	75.4918	-96.846	-186.212	50.6746	-90.2272	-248.704	65.4676	-67.3659	-228.318	54.039	-91.6078	-199.024	41.2183	-87.295	-252.343	47.9943	-53.2922	-241.581	40.66	-75.4511	-206.82	35.7674	-78.4041	-253.368	67.0892	-3.86459	-248.23	65.5052	27.4887	-233.764	94.6669	12.2936	
238	1.98333	-187.52	94.2919	6.95619	-171.429	85.1593	-25.2782	-168.645	83.1197	-56.3393	-170.167	75.0011	-79.7826	-219.585	105.665	-68.137	-203.478	89.8922	-93.9944	-180.019	70.8749	-97.2111	-235.773	85.6592	-74.4138	-213.436	67.9031	-95.6477	-181.701	50.3008	-85.2122	-244.88	64.6904	-70.2899	-224.881	52.3647	-90.2809	-195.932	38.1968	-82.0289	-252.516	43.3932	-54.8527	-233.525	38.8741	-75.357	-204.123	33.4968	-73.6432	-251.099	68.9421	-3.17276	-250.119	63.1324	26.3606	-229.44	94.5193	13.4826	
239	1.99167	-187.184	94.2787	7.48313	-173.703	84.5574	-27.0439	-170.668	81.7973	-56.3048	-169.402	73.4592	-83.1385	-221.162	101.297	-68.7304	-204.134	91.1102	-92.7506	-179.973	67.3912	-97.4553	-235.675	83.7041	-74.4804	-212.963	66.14	-94.5513	-181.159	47.7634	-81.9224	-245.686	61.3271	-68.7244	-219.734	48.8742	-89.7224	-195.819	35.7586	-79.0869	-250.459	44.4736	-50.673	-229.406	35.9811	-75.6138	-202.702	34.4971	-71.701	-253.325	66.4632	-6.9011	-248.547	61.4597	29.6718	-232.395	94.8698	11.2751	
240	2	-188.74	94.2956	4.35587	-170.659	85.9408	-25.4092	-168.871	82.209	-56.2546	-172.64	71.0068	-79.3653	-221.063	100.042	-69.3476	-203.199	85.2854	-94.2671	-181.688	69.1997	-97.4555	-234.995	79.3038	-77.5521	-213.547	66.9367	-94.44	-178.632	48.1458	-81.0934	-242.544	62.8798	-70.2785	-219.049	48.4249	-88.7362	-190.825	34.4915	-74.931	-250.738	39.0793	-56.4003	-229.169	33.3394	-74.786	-198.685	34.0986	-67.2943	-254.527	65.1659	-5.06782	-245.779	62.485	26.4192	-232.664	95.7078	10.5052	
241	2.00833	-190.3	91.5578	8.7931	-171.454	85.4419	-26.7083	-170.762	82.5618	-58.9472	-171.235	71.1253	-77.8683	-219.828	101.318	-69.2479	-204.86	88.1983	-92.3844	-181.653	66.7355	-96.1484	-235.051	82.5923	-74.9951	-210.063	68.2439	-95.3331	-180.058	48.5148	-82.7951	-243.679	60.7607	-70.6687	-216.599	43.7605	-89.4841	-189.08	36.0207	-73.2916	-249.824	37.8498	-55.2291	-226.282	32.3606	-74.1043	-198.091	30.2025	-65.2991	-254.609	65.1934	-4.63196	-247.084	59.6368	27.6171	-234.496	92.4828	6.90064	
242	2.01667	-188.649	93.95	6.93772	-175.908	84.699	-27.5589	-170.152	82.453	-56.6023	-169.768	72.4373	-82.9297	-218.495	101.458	-72.0454	-203.816	85.4528	-93.5863	-179.921	64.5037	-96.2333	-235.269	80.7356	-76.2402	-208.291	68.3564	-95.5579	-182.203	47.8049	-84.1305	-245.957	57.4856	-70.0513	-216.522	48.2138	-88.4855	-189.668	33.4338	-72.9714	-249.943	40.2794	-55.3736	-228.003	36.0044	-73.8439	-196.85	30.5387	-64.9153	-252.03	68.4221	-5.39919	-245.418	61.6802	28.5452	-233.382	95.9345	8.25115	
243	2.025	-189.961	94.3685	7.43908	-172.797	86.9523	-26.23	-172.82	82.3298	-55.4965	-170.632	73.4322	-79.9303	-221.745	100.273	-70.7905	-206.87	85.2079	-92.5371	-179.96	66.2268	-97.2625	-235.144	82.6313	-75.7379	-212.552	66.8686	-95.941	-183.208	46.2756	-83.956	-245.918	59.1376	-66.7928	-221.187	50.2212	-88.8775	-190.521	33.9078	-74.2249	-249.662	40.9551	-55.8368	-230.216	34.2539	-74.7275	-200.216	32.654	-67.266	-252.648	69.1555	-8.26604	-246.43	65.0383	27.5622	-235.492	92.8368	10.3569	
244	2.03333	-190.972	94.2157	5.4322	-171.439	88.93	-25.3779	-171.336	84.3244	-53.2167	-170.651	75.0819	-82.4709	-221.977	102.393	-68.2609	-208.778	87.1977	-92.4122	-180.583	70.1694	-97.2437	-236.433	84.1854	-75.7631	-215.37	66.6793	-95.3932	-184.437	47.4844	-86.5269	-244.843	62.0298	-68.6321	-218.018	48.5066	-89.4812	-192.293	33.0066	-77.443	-251.271	41.0154	-52.8548	-234.383	33.8493	-75.0248	-200.976	32.6635	-71.6593	-253.984	65.3903	-4.34451	-248.471	64.7003	26.3896	-230.517	96.9317	11.7175	
